<mxfile host="app.diagrams.net" agent="Mozilla/5.0 (Windows NT 10.0; Win64; x64) AppleWebKit/537.36 (KHTML, like Gecko) Chrome/128.0.0.0 Safari/537.36 Edg/128.0.0.0" version="24.7.6">
  <diagram name="Page-1" id="7jy3mEAV8j38JQocRnEl">
    <mxGraphModel dx="1334" dy="1159" grid="0" gridSize="10" guides="1" tooltips="1" connect="1" arrows="1" fold="1" page="0" pageScale="1" pageWidth="1100" pageHeight="1700" math="0" shadow="0">
      <root>
        <mxCell id="0" />
        <mxCell id="1" parent="0" />
        <mxCell id="xc72Eefd26BbPK5W_Sga-25" value="" style="rounded=0;whiteSpace=wrap;html=1;fillColor=#ffcccc;strokeColor=#36393d;" vertex="1" parent="1">
          <mxGeometry x="-79" y="-152" width="311" height="59" as="geometry" />
        </mxCell>
        <mxCell id="xc72Eefd26BbPK5W_Sga-4" value="history&lt;br&gt;write&lt;br&gt;cache" style="rounded=0;whiteSpace=wrap;html=1;" vertex="1" parent="1">
          <mxGeometry x="-75" y="-150" width="81" height="282" as="geometry" />
        </mxCell>
        <mxCell id="xc72Eefd26BbPK5W_Sga-8" value="table&lt;br&gt;proxy_history" style="rounded=0;whiteSpace=wrap;html=1;" vertex="1" parent="1">
          <mxGeometry x="408" y="-165" width="94" height="282" as="geometry" />
        </mxCell>
        <mxCell id="xc72Eefd26BbPK5W_Sga-10" value="" style="shape=image;verticalLabelPosition=bottom;verticalAlign=top;imageAspect=0;aspect=fixed;image=data:image/svg+xml,PHN2ZyB4bWxuczp4bGluaz0iaHR0cDovL3d3dy53My5vcmcvMTk5OS94bGluayIgeG1sbnM9Imh0dHA6Ly93d3cudzMub3JnLzIwMDAvc3ZnIiBvdmVyZmxvdz0iaGlkZGVuIiBpZD0iTGF5ZXJfMSIgdmlld0JveD0iMCAwIDg4IDg4Ij48ZGVmcy8+PHBhdGggZmlsbD0ibm9uZSIgc3Ryb2tlLWxpbmVqb2luPSJyb3VuZCIgc3Ryb2tlLWxpbmVjYXA9InJvdW5kIiBzdHJva2Utd2lkdGg9IjEuNSIgc3Ryb2tlPSIjMEE0NjZBIiBkPSJNNDguMDMgNTguOSAyMi4zIDU4LjlDMjAuNjUgNTguOSAxOS4zIDU3LjU1IDE5LjMgNTUuOUwxOS4zIDIzLjRDMTkuMyAyMS43NSAyMC42NSAyMC40IDIyLjMgMjAuNEw1NC44IDIwLjRDNTYuNDUgMjAuNCA1Ny44IDIxLjc1IDU3LjggMjMuNEw1Ny44IDUxLjI2Ii8+PHBhdGggZmlsbD0ibm9uZSIgc3Ryb2tlLWxpbmVqb2luPSJyb3VuZCIgc3Ryb2tlLWxpbmVjYXA9InJvdW5kIiBzdHJva2Utd2lkdGg9IjEuNSIgc3Ryb2tlPSIjMEE0NjZBIiBkPSJNNDguMDMgNTIuNDEgMjUuMDggNTIuNDEgMjUuMDggMjYuMiA1MS4yOSAyNi4yIDUxLjI5IDUwLjc3Ii8+PGNpcmNsZSBmaWxsPSJub25lIiBzdHJva2UtbGluZWpvaW49InJvdW5kIiBzdHJva2UtbGluZWNhcD0icm91bmQiIHN0cm9rZS13aWR0aD0iMS41IiBzdHJva2U9IiMwQTQ2NkEiIHI9IjMuODUiIGN5PSI2LjgzIiBjeD0iMzguMDMiLz48bGluZSBmaWxsPSJub25lIiBzdHJva2UtbGluZWpvaW49InJvdW5kIiBzdHJva2UtbGluZWNhcD0icm91bmQiIHN0cm9rZS13aWR0aD0iMS41IiBzdHJva2U9IiMwQTQ2NkEiIHkyPSIyMC40IiB4Mj0iMzguMDMiIHkxPSIxMC42NyIgeDE9IjM4LjAzIi8+PHBhdGggZmlsbD0ibm9uZSIgc3Ryb2tlLWxpbmVqb2luPSJyb3VuZCIgc3Ryb2tlLWxpbmVjYXA9InJvdW5kIiBzdHJva2Utd2lkdGg9IjEuNSIgc3Ryb2tlPSIjMEE0NjZBIiBkPSJNMjMuNjUgMTAuNjcgMjMuNjUgMTQuNTUgMjguNjMgMTQuNTUgMjguNjMgMjAuNCIvPjxwYXRoIGZpbGw9Im5vbmUiIHN0cm9rZS1saW5lam9pbj0icm91bmQiIHN0cm9rZS1saW5lY2FwPSJyb3VuZCIgc3Ryb2tlLXdpZHRoPSIxLjUiIHN0cm9rZT0iIzBBNDY2QSIgZD0iTTUyLjQyIDEwLjY3IDUyLjQyIDE0LjU1IDQ3LjQ0IDE0LjU1IDQ3LjQ0IDIwLjQiLz48bGluZSBmaWxsPSJub25lIiBzdHJva2UtbGluZWpvaW49InJvdW5kIiBzdHJva2UtbGluZWNhcD0icm91bmQiIHN0cm9rZS13aWR0aD0iMS41IiBzdHJva2U9IiMwQTQ2NkEiIHkyPSI1OC45IiB4Mj0iMzguMDMiIHkxPSI2OC42MiIgeDE9IjM4LjAzIi8+PHBhdGggZmlsbD0ibm9uZSIgc3Ryb2tlLWxpbmVqb2luPSJyb3VuZCIgc3Ryb2tlLWxpbmVjYXA9InJvdW5kIiBzdHJva2Utd2lkdGg9IjEuNSIgc3Ryb2tlPSIjMEE0NjZBIiBkPSJNMjMuNjUgNjguNjIgMjMuNjUgNjQuNzQgMjguNjMgNjQuNzQgMjguNjMgNTguOSIvPjxjaXJjbGUgZmlsbD0ibm9uZSIgc3Ryb2tlLWxpbmVqb2luPSJyb3VuZCIgc3Ryb2tlLWxpbmVjYXA9InJvdW5kIiBzdHJva2Utd2lkdGg9IjEuNSIgc3Ryb2tlPSIjMEE0NjZBIiByPSIzLjg1IiBjeT0iNzIuNDciIGN4PSIzOC4wMyIvPjxnPjxwYXRoIGZpbGw9IiNENDAwMDAiIHN0cm9rZS13aWR0aD0iMCIgZD0iTTguMTYgMzEuODkgNjguMTEgMzEuODkgNjguMTEgNDcuNTkgOC4xNiA0Ny41OSA4LjE2IDMxLjg5IDguMTYgMzEuODlaIi8+PHBhdGggZmlsbD0iI0ZGRkZGRiIgc3Ryb2tlLXdpZHRoPSIwIiBkPSJNMTAuNzIgMzQuMjkgMTkuMzkgMzQuMjkgMTkuMzkgMzUuNDIgMTIuNDEgNDMuOTcgMTkuNTYgNDMuOTcgMTkuNTYgNDUuMjEgMTAuNTUgNDUuMjEgMTAuNTUgNDQuMDggMTcuNTMgMzUuNTMgMTAuNzIgMzUuNTMgMTAuNzIgMzQuMjkgMTAuNzIgMzQuMjlaIi8+PHBhdGggZmlsbD0iI0ZGRkZGRiIgc3Ryb2tlLXdpZHRoPSIwIiBkPSJNMjUuNDIgMzUuNzQgMjMuMzkgNDEuMTcgMjcuNDUgNDEuMTcgMjUuNDIgMzUuNzQgMjUuNDIgMzUuNzRaTTI0LjU4IDM0LjI5IDI2LjI3IDM0LjI5IDMwLjQ4IDQ1LjIxIDI4LjkzIDQ1LjIxIDI3LjkzIDQyLjQxIDIyLjk1IDQyLjQxIDIxLjk0IDQ1LjIxIDIwLjM3IDQ1LjIxIDI0LjU4IDM0LjI5IDI0LjU4IDM0LjI5WiIvPjxwYXRoIGZpbGw9IiNGRkZGRkYiIHN0cm9rZS13aWR0aD0iMCIgZD0iTTMzLjU4IDM5Ljk5IDMzLjU4IDQzLjk5IDM1Ljk3IDQzLjk5QzM2Ljc3IDQzLjk5IDM3LjM3IDQzLjgzIDM3Ljc2IDQzLjUgMzguMTUgNDMuMTcgMzguMzQgNDIuNjcgMzguMzQgNDEuOTkgMzguMzQgNDEuMzEgMzguMTUgNDAuOCAzNy43NiA0MC40OCAzNy4zNyA0MC4xNiAzNi43OCAzOS45OSAzNS45NyAzOS45OUwzMy41OCAzOS45OVpNMzMuNTggMzUuNSAzMy41OCAzOC43OSAzNS43OSAzOC43OUMzNi41MiAzOC43OSAzNy4wNiAzOC42NSAzNy40MiAzOC4zOCAzNy43OCAzOC4xMSAzNy45NiAzNy43IDM3Ljk2IDM3LjE0IDM3Ljk2IDM2LjU4IDM3Ljc4IDM2LjE4IDM3LjQyIDM1LjkgMzcuMDYgMzUuNjMgMzYuNTIgMzUuNDkgMzUuNzkgMzUuNDlMMzMuNTggMzUuNDlaTTMyLjA4IDM0LjI5IDM1Ljg5IDM0LjI5QzM3LjAzIDM0LjI5IDM3LjkxIDM0LjUyIDM4LjUyIDM0Ljk5IDM5LjE0IDM1LjQ2IDM5LjQ0IDM2LjEyIDM5LjQ0IDM2Ljk5IDM5LjQ0IDM3LjY2IDM5LjI4IDM4LjE5IDM4Ljk3IDM4LjU4IDM4LjY1IDM4Ljk3IDM4LjE5IDM5LjIyIDM3LjU4IDM5LjMyIDM4LjMxIDM5LjQ4IDM4Ljg4IDM5LjggMzkuMjkgNDAuMyAzOS43IDQwLjc5IDM5LjkgNDEuNDEgMzkuOSA0Mi4xNSAzOS45IDQzLjEzIDM5LjU2IDQzLjg4IDM4Ljg5IDQ0LjQxIDM4LjIyIDQ0Ljk0IDM3LjI3IDQ1LjIxIDM2LjAzIDQ1LjIxTDMyLjA3IDQ1LjIxIDMyLjA3IDM0LjI5IDMyLjA3IDM0LjI5WiIvPjxwYXRoIGZpbGw9IiNGRkZGRkYiIHN0cm9rZS13aWR0aD0iMCIgZD0iTTQzLjggMzkuOTkgNDMuOCA0My45OSA0Ni4yIDQzLjk5QzQ3IDQzLjk5IDQ3LjYgNDMuODMgNDcuOTkgNDMuNSA0OC4zOCA0My4xNyA0OC41NyA0Mi42NyA0OC41NyA0MS45OSA0OC41NyA0MS4zMSA0OC4zOCA0MC44IDQ3Ljk5IDQwLjQ4IDQ3LjYgNDAuMTYgNDcuMDEgMzkuOTkgNDYuMiAzOS45OUw0My44IDM5Ljk5Wk00My44IDM1LjUgNDMuOCAzOC43OSA0Ni4wMSAzOC43OUM0Ni43NCAzOC43OSA0Ny4yOCAzOC42NSA0Ny42NCAzOC4zOCA0OCAzOC4xMSA0OC4xOCAzNy43IDQ4LjE4IDM3LjE0IDQ4LjE4IDM2LjU4IDQ4IDM2LjE4IDQ3LjY0IDM1LjkgNDcuMjggMzUuNjMgNDYuNzQgMzUuNDkgNDYuMDEgMzUuNDlMNDMuOCAzNS40OVpNNDIuMyAzNC4yOSA0Ni4xMSAzNC4yOUM0Ny4yNSAzNC4yOSA0OC4xMyAzNC41MiA0OC43NCAzNC45OSA0OS4zNiAzNS40NiA0OS42NiAzNi4xMiA0OS42NiAzNi45OSA0OS42NiAzNy42NiA0OS41IDM4LjE5IDQ5LjE5IDM4LjU4IDQ4Ljg3IDM4Ljk3IDQ4LjQxIDM5LjIyIDQ3LjggMzkuMzIgNDguNTMgMzkuNDggNDkuMSAzOS44IDQ5LjUxIDQwLjMgNDkuOTIgNDAuNzkgNTAuMTIgNDEuNDEgNTAuMTIgNDIuMTUgNTAuMTIgNDMuMTMgNDkuNzggNDMuODggNDkuMTEgNDQuNDEgNDguNDQgNDQuOTQgNDcuNDkgNDUuMjEgNDYuMjUgNDUuMjFMNDIuMjkgNDUuMjEgNDIuMjkgMzQuMjkgNDIuMjkgMzQuMjlaIi8+PHBhdGggZmlsbD0iI0ZGRkZGRiIgc3Ryb2tlLXdpZHRoPSIwIiBkPSJNNTYuODUgMzQuMjkgNTguNDkgMzQuMjkgNjEuMDggMzguMjEgNjMuNyAzNC4yOSA2NS4yOSAzNC4yOSA2MS44NyAzOS40IDY1LjcxIDQ1LjIgNjQuMDcgNDUuMiA2MS4wNSA0MC42MyA1OCA0NS4yIDU2LjQxIDQ1LjIgNjAuMjYgMzkuNDQgNTYuODUgMzQuMjhaIi8+PHBhdGggZmlsbD0iI0ZGRkZGRiIgc3Ryb2tlLXdpZHRoPSIwIiBkPSJNNTIuNTMgMzQuMjkgNTQuMDIgMzQuMjkgNTQuMDIgNDUuMjEgNTIuNTMgNDUuMjEgNTIuNTMgMzQuMjkgNTIuNTMgMzQuMjlaIi8+PC9nPjxjaXJjbGUgZmlsbD0ibm9uZSIgc3Ryb2tlLW1pdGVybGltaXQ9IjEwIiBzdHJva2Utd2lkdGg9IjEuNSIgc3Ryb2tlPSIjRDQwMDAwIiByPSIzLjg1IiBjeT0iNi44MyIgY3g9IjIzLjY1Ii8+PGNpcmNsZSBmaWxsPSJub25lIiBzdHJva2UtbWl0ZXJsaW1pdD0iMTAiIHN0cm9rZS13aWR0aD0iMS41IiBzdHJva2U9IiNENDAwMDAiIHI9IjMuODUiIGN5PSI2LjgzIiBjeD0iNTIuNDIiLz48Y2lyY2xlIGZpbGw9Im5vbmUiIHN0cm9rZS1taXRlcmxpbWl0PSIxMCIgc3Ryb2tlLXdpZHRoPSIxLjUiIHN0cm9rZT0iI0Q0MDAwMCIgcj0iMy44NSIgY3k9IjcyLjQ3IiBjeD0iMjMuNjUiLz48Zz48cmVjdCBmaWxsPSIjMDA3OEQzIiBzdHJva2Utd2lkdGg9IjAiIGhlaWdodD0iMTAuOTkiIHdpZHRoPSIxMC45OSIgeT0iNjguOSIgeD0iNTMuNTYiLz48cmVjdCBmaWxsPSIjMDA3OEQzIiBzdHJva2Utd2lkdGg9IjAiIGhlaWdodD0iMTAuOTkiIHdpZHRoPSIxMC45OSIgeT0iNjguOSIgeD0iNjUuNzIiLz48cmVjdCBmaWxsPSIjMDA3OEQzIiBzdHJva2Utd2lkdGg9IjAiIGhlaWdodD0iMTAuOTkiIHdpZHRoPSIxMC45OSIgeT0iNTYuODQiIHg9IjUzLjU2Ii8+PHJlY3QgZmlsbD0iIzAwNzhEMyIgc3Ryb2tlLXdpZHRoPSIwIiBoZWlnaHQ9IjEwLjk5IiB3aWR0aD0iMTAuOTkiIHk9IjU2Ljg0IiB4PSI2NS43MiIvPjwvZz48cmVjdCBmaWxsPSJub25lIiBzdHJva2UtbGluZWpvaW49InJvdW5kIiBzdHJva2UtbGluZWNhcD0icm91bmQiIHN0cm9rZS13aWR0aD0iMS41IiBzdHJva2U9IiMwQTQ2NkEiIGhlaWdodD0iMzMuMDQiIHdpZHRoPSIzMy4wNCIgeT0iNTEuMjYiIHg9IjQ4LjAzIi8+PC9zdmc+" vertex="1" parent="1">
          <mxGeometry x="659" y="-351" width="88" height="88" as="geometry" />
        </mxCell>
        <mxCell id="xc72Eefd26BbPK5W_Sga-11" value="" style="shape=image;verticalLabelPosition=bottom;verticalAlign=top;imageAspect=0;aspect=fixed;image=data:image/svg+xml,PHN2ZyB4bWxuczp4bGluaz0iaHR0cDovL3d3dy53My5vcmcvMTk5OS94bGluayIgeG1sbnM9Imh0dHA6Ly93d3cudzMub3JnLzIwMDAvc3ZnIiBvdmVyZmxvdz0iaGlkZGVuIiBpZD0iTGF5ZXJfMSIgdmlld0JveD0iMCAwIDg4IDg4Ij48ZGVmcy8+PHBhdGggZmlsbD0ibm9uZSIgc3Ryb2tlLWxpbmVqb2luPSJyb3VuZCIgc3Ryb2tlLWxpbmVjYXA9InJvdW5kIiBzdHJva2Utd2lkdGg9IjEuNSIgc3Ryb2tlPSIjMEE0NjZBIiBkPSJNNDguMDMgNTguOSAyMi4zIDU4LjlDMjAuNjUgNTguOSAxOS4zIDU3LjU1IDE5LjMgNTUuOUwxOS4zIDIzLjRDMTkuMyAyMS43NSAyMC42NSAyMC40IDIyLjMgMjAuNEw1NC44IDIwLjRDNTYuNDUgMjAuNCA1Ny44IDIxLjc1IDU3LjggMjMuNEw1Ny44IDUxLjI2Ii8+PHBhdGggZmlsbD0ibm9uZSIgc3Ryb2tlLWxpbmVqb2luPSJyb3VuZCIgc3Ryb2tlLWxpbmVjYXA9InJvdW5kIiBzdHJva2Utd2lkdGg9IjEuNSIgc3Ryb2tlPSIjMEE0NjZBIiBkPSJNNDguMDMgNTIuNDEgMjUuMDggNTIuNDEgMjUuMDggMjYuMiA1MS4yOSAyNi4yIDUxLjI5IDUwLjc3Ii8+PGNpcmNsZSBmaWxsPSJub25lIiBzdHJva2UtbGluZWpvaW49InJvdW5kIiBzdHJva2UtbGluZWNhcD0icm91bmQiIHN0cm9rZS13aWR0aD0iMS41IiBzdHJva2U9IiMwQTQ2NkEiIHI9IjMuODUiIGN5PSI2LjgzIiBjeD0iMzguMDMiLz48bGluZSBmaWxsPSJub25lIiBzdHJva2UtbGluZWpvaW49InJvdW5kIiBzdHJva2UtbGluZWNhcD0icm91bmQiIHN0cm9rZS13aWR0aD0iMS41IiBzdHJva2U9IiMwQTQ2NkEiIHkyPSIyMC40IiB4Mj0iMzguMDMiIHkxPSIxMC42NyIgeDE9IjM4LjAzIi8+PHBhdGggZmlsbD0ibm9uZSIgc3Ryb2tlLWxpbmVqb2luPSJyb3VuZCIgc3Ryb2tlLWxpbmVjYXA9InJvdW5kIiBzdHJva2Utd2lkdGg9IjEuNSIgc3Ryb2tlPSIjMEE0NjZBIiBkPSJNMjMuNjUgMTAuNjcgMjMuNjUgMTQuNTUgMjguNjMgMTQuNTUgMjguNjMgMjAuNCIvPjxwYXRoIGZpbGw9Im5vbmUiIHN0cm9rZS1saW5lam9pbj0icm91bmQiIHN0cm9rZS1saW5lY2FwPSJyb3VuZCIgc3Ryb2tlLXdpZHRoPSIxLjUiIHN0cm9rZT0iIzBBNDY2QSIgZD0iTTUyLjQyIDEwLjY3IDUyLjQyIDE0LjU1IDQ3LjQ0IDE0LjU1IDQ3LjQ0IDIwLjQiLz48bGluZSBmaWxsPSJub25lIiBzdHJva2UtbGluZWpvaW49InJvdW5kIiBzdHJva2UtbGluZWNhcD0icm91bmQiIHN0cm9rZS13aWR0aD0iMS41IiBzdHJva2U9IiMwQTQ2NkEiIHkyPSI1OC45IiB4Mj0iMzguMDMiIHkxPSI2OC42MiIgeDE9IjM4LjAzIi8+PHBhdGggZmlsbD0ibm9uZSIgc3Ryb2tlLWxpbmVqb2luPSJyb3VuZCIgc3Ryb2tlLWxpbmVjYXA9InJvdW5kIiBzdHJva2Utd2lkdGg9IjEuNSIgc3Ryb2tlPSIjMEE0NjZBIiBkPSJNMjMuNjUgNjguNjIgMjMuNjUgNjQuNzQgMjguNjMgNjQuNzQgMjguNjMgNTguOSIvPjxjaXJjbGUgZmlsbD0ibm9uZSIgc3Ryb2tlLWxpbmVqb2luPSJyb3VuZCIgc3Ryb2tlLWxpbmVjYXA9InJvdW5kIiBzdHJva2Utd2lkdGg9IjEuNSIgc3Ryb2tlPSIjMEE0NjZBIiByPSIzLjg1IiBjeT0iNzIuNDciIGN4PSIzOC4wMyIvPjxnPjxwYXRoIGZpbGw9IiNENDAwMDAiIHN0cm9rZS13aWR0aD0iMCIgZD0iTTguMTYgMzEuODkgNjguMTEgMzEuODkgNjguMTEgNDcuNTkgOC4xNiA0Ny41OSA4LjE2IDMxLjg5IDguMTYgMzEuODlaIi8+PHBhdGggZmlsbD0iI0ZGRkZGRiIgc3Ryb2tlLXdpZHRoPSIwIiBkPSJNMTAuNzIgMzQuMjkgMTkuMzkgMzQuMjkgMTkuMzkgMzUuNDIgMTIuNDEgNDMuOTcgMTkuNTYgNDMuOTcgMTkuNTYgNDUuMjEgMTAuNTUgNDUuMjEgMTAuNTUgNDQuMDggMTcuNTMgMzUuNTMgMTAuNzIgMzUuNTMgMTAuNzIgMzQuMjkgMTAuNzIgMzQuMjlaIi8+PHBhdGggZmlsbD0iI0ZGRkZGRiIgc3Ryb2tlLXdpZHRoPSIwIiBkPSJNMjUuNDIgMzUuNzQgMjMuMzkgNDEuMTcgMjcuNDUgNDEuMTcgMjUuNDIgMzUuNzQgMjUuNDIgMzUuNzRaTTI0LjU4IDM0LjI5IDI2LjI3IDM0LjI5IDMwLjQ4IDQ1LjIxIDI4LjkzIDQ1LjIxIDI3LjkzIDQyLjQxIDIyLjk1IDQyLjQxIDIxLjk0IDQ1LjIxIDIwLjM3IDQ1LjIxIDI0LjU4IDM0LjI5IDI0LjU4IDM0LjI5WiIvPjxwYXRoIGZpbGw9IiNGRkZGRkYiIHN0cm9rZS13aWR0aD0iMCIgZD0iTTMzLjU4IDM5Ljk5IDMzLjU4IDQzLjk5IDM1Ljk3IDQzLjk5QzM2Ljc3IDQzLjk5IDM3LjM3IDQzLjgzIDM3Ljc2IDQzLjUgMzguMTUgNDMuMTcgMzguMzQgNDIuNjcgMzguMzQgNDEuOTkgMzguMzQgNDEuMzEgMzguMTUgNDAuOCAzNy43NiA0MC40OCAzNy4zNyA0MC4xNiAzNi43OCAzOS45OSAzNS45NyAzOS45OUwzMy41OCAzOS45OVpNMzMuNTggMzUuNSAzMy41OCAzOC43OSAzNS43OSAzOC43OUMzNi41MiAzOC43OSAzNy4wNiAzOC42NSAzNy40MiAzOC4zOCAzNy43OCAzOC4xMSAzNy45NiAzNy43IDM3Ljk2IDM3LjE0IDM3Ljk2IDM2LjU4IDM3Ljc4IDM2LjE4IDM3LjQyIDM1LjkgMzcuMDYgMzUuNjMgMzYuNTIgMzUuNDkgMzUuNzkgMzUuNDlMMzMuNTggMzUuNDlaTTMyLjA4IDM0LjI5IDM1Ljg5IDM0LjI5QzM3LjAzIDM0LjI5IDM3LjkxIDM0LjUyIDM4LjUyIDM0Ljk5IDM5LjE0IDM1LjQ2IDM5LjQ0IDM2LjEyIDM5LjQ0IDM2Ljk5IDM5LjQ0IDM3LjY2IDM5LjI4IDM4LjE5IDM4Ljk3IDM4LjU4IDM4LjY1IDM4Ljk3IDM4LjE5IDM5LjIyIDM3LjU4IDM5LjMyIDM4LjMxIDM5LjQ4IDM4Ljg4IDM5LjggMzkuMjkgNDAuMyAzOS43IDQwLjc5IDM5LjkgNDEuNDEgMzkuOSA0Mi4xNSAzOS45IDQzLjEzIDM5LjU2IDQzLjg4IDM4Ljg5IDQ0LjQxIDM4LjIyIDQ0Ljk0IDM3LjI3IDQ1LjIxIDM2LjAzIDQ1LjIxTDMyLjA3IDQ1LjIxIDMyLjA3IDM0LjI5IDMyLjA3IDM0LjI5WiIvPjxwYXRoIGZpbGw9IiNGRkZGRkYiIHN0cm9rZS13aWR0aD0iMCIgZD0iTTQzLjggMzkuOTkgNDMuOCA0My45OSA0Ni4yIDQzLjk5QzQ3IDQzLjk5IDQ3LjYgNDMuODMgNDcuOTkgNDMuNSA0OC4zOCA0My4xNyA0OC41NyA0Mi42NyA0OC41NyA0MS45OSA0OC41NyA0MS4zMSA0OC4zOCA0MC44IDQ3Ljk5IDQwLjQ4IDQ3LjYgNDAuMTYgNDcuMDEgMzkuOTkgNDYuMiAzOS45OUw0My44IDM5Ljk5Wk00My44IDM1LjUgNDMuOCAzOC43OSA0Ni4wMSAzOC43OUM0Ni43NCAzOC43OSA0Ny4yOCAzOC42NSA0Ny42NCAzOC4zOCA0OCAzOC4xMSA0OC4xOCAzNy43IDQ4LjE4IDM3LjE0IDQ4LjE4IDM2LjU4IDQ4IDM2LjE4IDQ3LjY0IDM1LjkgNDcuMjggMzUuNjMgNDYuNzQgMzUuNDkgNDYuMDEgMzUuNDlMNDMuOCAzNS40OVpNNDIuMyAzNC4yOSA0Ni4xMSAzNC4yOUM0Ny4yNSAzNC4yOSA0OC4xMyAzNC41MiA0OC43NCAzNC45OSA0OS4zNiAzNS40NiA0OS42NiAzNi4xMiA0OS42NiAzNi45OSA0OS42NiAzNy42NiA0OS41IDM4LjE5IDQ5LjE5IDM4LjU4IDQ4Ljg3IDM4Ljk3IDQ4LjQxIDM5LjIyIDQ3LjggMzkuMzIgNDguNTMgMzkuNDggNDkuMSAzOS44IDQ5LjUxIDQwLjMgNDkuOTIgNDAuNzkgNTAuMTIgNDEuNDEgNTAuMTIgNDIuMTUgNTAuMTIgNDMuMTMgNDkuNzggNDMuODggNDkuMTEgNDQuNDEgNDguNDQgNDQuOTQgNDcuNDkgNDUuMjEgNDYuMjUgNDUuMjFMNDIuMjkgNDUuMjEgNDIuMjkgMzQuMjkgNDIuMjkgMzQuMjlaIi8+PHBhdGggZmlsbD0iI0ZGRkZGRiIgc3Ryb2tlLXdpZHRoPSIwIiBkPSJNNTYuODUgMzQuMjkgNTguNDkgMzQuMjkgNjEuMDggMzguMjEgNjMuNyAzNC4yOSA2NS4yOSAzNC4yOSA2MS44NyAzOS40IDY1LjcxIDQ1LjIgNjQuMDcgNDUuMiA2MS4wNSA0MC42MyA1OCA0NS4yIDU2LjQxIDQ1LjIgNjAuMjYgMzkuNDQgNTYuODUgMzQuMjhaIi8+PHBhdGggZmlsbD0iI0ZGRkZGRiIgc3Ryb2tlLXdpZHRoPSIwIiBkPSJNNTIuNTMgMzQuMjkgNTQuMDIgMzQuMjkgNTQuMDIgNDUuMjEgNTIuNTMgNDUuMjEgNTIuNTMgMzQuMjkgNTIuNTMgMzQuMjlaIi8+PC9nPjxjaXJjbGUgZmlsbD0ibm9uZSIgc3Ryb2tlLW1pdGVybGltaXQ9IjEwIiBzdHJva2Utd2lkdGg9IjEuNSIgc3Ryb2tlPSIjRDQwMDAwIiByPSIzLjg1IiBjeT0iNi44MyIgY3g9IjIzLjY1Ii8+PGNpcmNsZSBmaWxsPSJub25lIiBzdHJva2UtbWl0ZXJsaW1pdD0iMTAiIHN0cm9rZS13aWR0aD0iMS41IiBzdHJva2U9IiNENDAwMDAiIHI9IjMuODUiIGN5PSI2LjgzIiBjeD0iNTIuNDIiLz48Y2lyY2xlIGZpbGw9Im5vbmUiIHN0cm9rZS1taXRlcmxpbWl0PSIxMCIgc3Ryb2tlLXdpZHRoPSIxLjUiIHN0cm9rZT0iI0Q0MDAwMCIgcj0iMy44NSIgY3k9IjcyLjQ3IiBjeD0iMjMuNjUiLz48cGF0aCBmaWxsPSIjMEE0NjZBIiBzdHJva2Utd2lkdGg9IjAiIGQ9Ik03MC41OCA4MS41NkM3MC40MiA4MS41MSA3MC4yNSA4MS40NyA3MC4wOSA4MS40MiA2OS42OSA4MS4zIDY5LjM4IDgxLjA1IDY5LjE5IDgwLjY4IDY5LjAxIDgwLjMzIDY4LjcgODAuMTcgNjguMzQgODAuMTUgNjYuNzkgODAuMDUgNjUuMjUgODAuMDcgNjMuNzEgODAuMjIgNjMuMTMgODAuMjcgNjIuNjEgODAuNTIgNjIuMTYgODAuODkgNjEuNDQgODEuNDkgNjAuNjYgODEuNjEgNTkuNzggODEuMjcgNTguMTMgODAuNjMgNTYuNDEgODAuMjUgNTQuNjggNzkuOTMgNTQuNjUgNzkuOTMgNTQuNjMgNzkuOTMgNTQuNiA3OS45MiA1My43NCA3OS43IDUzLjQ4IDc5LjI5IDUzLjgyIDc4LjQ3IDU0LjEyIDc3LjczIDU0LjE3IDc3LjAyIDUzLjkzIDc2LjI2IDUzLjg2IDc2LjA2IDUzLjg2IDc1LjgzIDUzLjg2IDc1LjYyIDUzLjg2IDc1LjM0IDU0LjAyIDc1LjE2IDU0LjI5IDc1LjExIDU0LjU3IDc1LjA2IDU0Ljg2IDc1LjAxIDU1LjE1IDc1IDU1LjYzIDc0Ljk3IDU2LjA0IDc0Ljc4IDU2LjMzIDc0LjQyIDU2LjUgNzQuMjEgNTYuNTkgNzMuOTMgNTYuNjkgNzMuNzMgNTYuOTQgNzQuMzQgNTYuNTcgNzUuMDkgNTUuOCA3NS4yOSA1NS40OCA3NS4zOCA1NS4xMiA3NS4zNyA1NC43OCA3NS4zNyA1NC4xOCA3NS4zNyA1NCA3NS42IDU0LjE5IDc2LjE3IDU0LjI3IDc2LjQgNTQuMzcgNzYuNjIgNTQuNDcgNzYuODQgNTQuNjYgNzcuMjQgNTQuNjYgNzcuNjQgNTQuNDggNzguMDQgNTQuMzggNzguMjUgNTQuMjkgNzguNDcgNTQuMiA3OC42OSA1NC4wNSA3OS4wOCA1NC4xMyA3OS4zIDU0LjUzIDc5LjQyIDU0Ljk3IDc5LjU1IDU1LjQzIDc5LjYzIDU1Ljg3IDc5Ljc0IDU3LjE2IDgwLjA2IDU4LjQ0IDgwLjQgNTkuNzIgODAuNzIgNjAuMTcgODAuODMgNjAuNjIgODAuOSA2MS4wOCA4MC44IDYxLjg1IDgwLjYyIDYyLjI2IDgwLjA2IDYyLjE3IDc5LjI4IDYyLjA5IDc4LjYyIDYxLjg3IDc4LjAxIDYxLjUgNzcuNDcgNjAuNjUgNzYuMjEgNTkuNzkgNzQuOTYgNTguOSA3My43NCA1OC42OCA3My40MyA1OC4zMiA3My4yIDU3Ljk5IDcyLjk5IDU3Ljc0IDcyLjgyIDU3LjQ0IDcyLjgyIDU3LjE3IDcyLjk5IDU2Ljk5IDczLjExIDU2LjkxIDczLjAzIDU2Ljg4IDcyLjg1IDU2Ljc3IDcyLjI0IDU2LjgxIDcxLjY0IDU3LjEzIDcxLjEyIDU3LjcyIDcwLjE0IDU4LjA0IDY5LjA2IDU4LjQ1IDY4LjAxIDU4Ljc1IDY3LjI2IDU5LjEzIDY2LjU2IDU5LjYyIDY1LjkyIDYwLjIgNjUuMTYgNjAuNzIgNjQuMzUgNjEuMjUgNjMuNTYgNjEuNDkgNjMuMjEgNjEuNTQgNjIuODIgNjEuNTIgNjIuMzggNjEuNDIgNjAuNzQgNjEuMzUgNTkuMDkgNjEuMzQgNTcuNDUgNjEuMzQgNTYuNjIgNjEuNSA1NS43OSA2Mi4wOCA1NS4xMiA2Mi43IDU0LjQxIDYzLjQ1IDUzLjkyIDY0LjQxIDUzLjgzIDY1LjUyIDUzLjczIDY2LjYgNTMuODcgNjcuNTkgNTQuNDIgNjguNyA1NS4wNCA2OS4yNiA1Ni4wOCA2OS42NCA1Ny4yNCA2OS44NiA1Ny45MiA2OS44MyA1OC42MSA2OS44NSA1OS4zMSA2OS44OCA2MC43MSA3MC4xNyA2Mi4wNSA3MC43OCA2My4zMSA3MS4xNiA2NC4wOSA3MS43IDY0Ljc1IDcyLjI3IDY1LjQgNzMuNzggNjcuMTUgNzQuNTYgNjkuMjMgNzQuODggNzEuNDkgNzQuOTUgNzEuOTkgNzQuODMgNzIuNTMgNzQuNzYgNzMuMDQgNzQuNzMgNzMuMjcgNzQuNTggNzMuNDMgNzQuMzYgNzMuNTUgNzQuMTkgNzMuNjUgNzQuMDYgNzMuODMgNzMuOTIgNzMuOTggNzMuNjggNzQuMjMgNzMuNDYgNzQuNTEgNzMuMTkgNzQuNzQgNzIuNzcgNzUuMDkgNzIuMjYgNzUuMTQgNzEuNzMgNzUuMDUgNzEuMzcgNzQuOTkgNzEuMTQgNzQuNzYgNzAuOTYgNzQuNDYgNzAuODMgNzQuMjQgNzAuNzMgNzMuOTggNzAuNTcgNzMuNzggNzAuNDYgNzMuNjUgNzAuMjYgNzMuNDggNzAuMTMgNzMuNSA2OS45OCA3My41MyA2OS44MiA3My43MiA2OS43NCA3My44OSA2OS41MiA3NC4zOCA2OS41MiA3NC45IDY5LjY1IDc1LjQgNjkuOTQgNzYuNDYgNjkuOSA3Ny41MiA2OS43NyA3OC42IDY5LjcyIDc4Ljk2IDY5LjcgNzkuMzUgNjkuNzcgNzkuNyA2OS45MiA4MC41NSA3MC42OCA4MSA3MS41MiA4MC43NiA3MS44MyA4MC42NyA3Mi4xNSA4MC41NCA3Mi4zOCA4MC4zMyA3My40MSA3OS40MiA3NC42MSA3OC44NSA3NS45IDc4LjQxIDc2LjE5IDc4LjMxIDc2LjQ3IDc4LjE0IDc2LjcyIDc3Ljk2IDc3LjA0IDc3LjcyIDc3LjA1IDc3LjQ1IDc2LjcyIDc3LjIgNzYuNDkgNzcuMDIgNzYuMjIgNzYuODggNzUuOTUgNzYuNzcgNzUuMDUgNzYuNCA3NC41NCA3NS4zNiA3NC44MiA3NC40MiA3NC44NSA3NC4zMyA3NC44OSA3NC4yNCA3NC45OCA3NC4xNiA3NS4wMiA3NC40IDc1LjA2IDc0LjY0IDc1LjExIDc0Ljg4IDc1LjI1IDc1LjU5IDc1LjYzIDc2LjE0IDc2LjI3IDc2LjUgNzYuNTEgNzYuNjMgNzYuNzQgNzYuNzggNzYuOTQgNzYuOTUgNzcuMzYgNzcuMzEgNzcuMzcgNzcuNzkgNzYuOTQgNzguMTMgNzYuNTQgNzguNDQgNzYuMTEgNzguNzQgNzUuNjQgNzguOTYgNzQuNCA3OS41MyA3My4zMiA4MC4zIDcyLjMgODEuMiA3Mi4wNiA4MS40MSA3MS42OSA4MS40NiA3MS4zNyA4MS41OEw3MC41NiA4MS41OFpNNjMuMDEgNjIuOTJDNjMuMDYgNjMgNjMuMDggNjMuMDUgNjMuMTIgNjMuMSA2My40NiA2My40OCA2My44OSA2My42MiA2NC4zOSA2My41NyA2NSA2My41MSA2NS41MiA2My4yMSA2Ni4wNSA2Mi45MyA2Ni4zMSA2Mi43OSA2Ni41NyA2Mi42NCA2Ni44NSA2Mi41MyA2Ni45MyA2Mi41IDY3LjA1IDYyLjU3IDY3LjE2IDYyLjYgNjcuMTEgNjIuNyA2Ny4wOSA2Mi44MyA2Ny4wMiA2Mi44OCA2Ni43OSA2My4wMyA2Ni41NCA2My4xMyA2Ni4zMSA2My4yNyA2NS43IDYzLjY2IDY1LjExIDY0LjA4IDY0LjUgNjQuNDYgNjQuMDIgNjQuNzYgNjMuNjkgNjQuNzEgNjMuMzIgNjQuMjkgNjMuMDMgNjMuOTYgNjIuNzcgNjMuNiA2Mi41IDYzLjI1IDYyLjQ0IDYzLjE4IDYyLjM3IDYzLjEyIDYyLjI1IDYzLjAxIDYyLjI1IDYzLjc2IDYxLjkgNjQuMyA2MS42IDY0Ljg3IDYxLjI3IDY1LjUgNjEuMDEgNjYuMTQgNjEuMzggNjYuODMgNjAuOTcgNjcuMTUgNjAuNzYgNjcuNTggNjAuNTUgNjguMDEgNjAuMDEgNjkuMDkgNTkuNTkgNzAuMTkgNTkuNjcgNzEuNDMgNTkuNjkgNzEuNjggNTkuNjcgNzEuOTQgNTkuNjMgNzIuMTkgNTkuNjEgNzIuMzMgNTkuNTEgNzIuNDUgNTkuNDQgNzIuNTkgNTkuMzEgNzIuNTIgNTkuMTYgNzIuNDggNTkuMDcgNzIuMzcgNTguNiA3MS44MyA1OC41NSA3MS4xOCA1OC41OSA3MC41MSA1OC42IDcwLjMxIDU4LjY0IDcwLjExIDU4LjY2IDY5LjkxIDU4LjU1IDcwIDU4LjQ5IDcwLjEgNTguNDQgNzAuMjEgNTguMTQgNzAuODcgNTguNDcgNzIuNDcgNTkuMTcgNzMuMDIgNjAuMjkgNzMuODkgNjEuMzQgNzQuODUgNjIuNDMgNzUuNzYgNjIuNzMgNzYuMDEgNjIuODYgNzYuMzIgNjIuNzcgNzYuNyA2Mi42OSA3Ny4wNyA2Mi40NSA3Ny4zMiA2Mi4wNyA3Ny40MiA2Mi4wMSA3Ny40MyA2MS45NiA3Ny40NiA2MS44OCA3Ny40OSA2Mi40MyA3OC4yNiA2Mi45NiA3OS4wMyA2Mi44NCA4MC4wNCA2My4xNyA3OS44OCA2My4zMiA3OS42NCA2My4yMiA3OS4zNCA2My4xIDc4Ljk5IDYyLjkyIDc4LjY1IDYyLjc0IDc4LjMyIDYyLjYyIDc4LjExIDYyLjY0IDc4IDYyLjg4IDc3Ljk3IDYyLjk5IDc3Ljk2IDYzLjExIDc4LjAzIDYzLjIyIDc4LjA4IDYzLjUzIDc4LjIzIDYzLjgzIDc4LjQ2IDY0LjE2IDc4LjUzIDY0LjYgNzguNjIgNjUuMDggNzguNjIgNjUuNTMgNzguNTggNjYuNzggNzguNDYgNjcuOTUgNzguMTcgNjguNjQgNzYuOTcgNjguNyA3Ni44NyA2OC44NSA3Ni44MiA2OC45NSA3Ni43NSA2OS4wMSA3Ni44NyA2OS4xIDc2Ljk5IDY5LjEyIDc3LjEyIDY5LjE5IDc3LjY1IDY5LjAzIDc4LjE2IDY4Ljg4IDc4LjY2IDY4LjgxIDc4LjkxIDY4LjczIDc5LjE2IDY4LjY5IDc5LjQyIDY4LjY1IDc5LjY2IDY4Ljc5IDc5Ljc5IDY5LjA2IDc5Ljc4IDY5LjEzIDc5LjQzIDY5LjE5IDc5LjA5IDY5LjI2IDc4Ljc1IDY5LjQzIDc3Ljg3IDY5LjU4IDc3IDY5LjQgNzYuMDkgNjkuMzEgNzUuNjIgNjkuMjggNzUuMTIgNjkuMjkgNzQuNjMgNjkuMjkgNzMuNzMgNjkuNiA3My4yMiA3MC40MiA3My4xNyA3MC40OCA3Mi41NiA3MC45IDcyLjMzIDcxLjQ0IDcyLjIzIDcxLjk3IDcyLjEzIDcyLjQ3IDcyLjI2IDcyLjk3IDcyLjQ3IDcyLjg2IDcyLjM0IDcyLjc0IDcyLjIzIDcyLjYxIDcyLjE0IDcyLjQ3IDcyLjA1IDcyLjMyIDcxLjk4IDcyLjE3IDcxLjkgNzIuOTIgNjkuNjUgNzEuNiA2Ni43NCA3MC42MSA2Ni4xOCA3MC45MyA2Ni44MiA3MS4zMiA2Ny41MSA3MS42MyA2OC4yMyA3Mi4wNyA2OS4yNSA3Mi4yNyA3MC4zMiA3MS45OSA3MS40MyA3MS44NyA3MS45MiA3MS41NyA3Mi4xNCA3MS4wNyA3Mi4xMyA3MC43OCA3Mi4xMyA3MC42NCA3MiA3MC41OSA3MS43MiA3MC41NiA3MS41MiA3MC41MyA3MS4zMSA3MC41MiA3MS4xIDcwLjQ3IDcwLjIxIDcwLjQ1IDY5LjMxIDcwLjIgNjguNDQgNzAuMDEgNjcuNzggNjkuOCA2Ny4xMyA2OS4zNSA2Ni41OCA2OS4yMiA2Ni40MyA2OS4xMiA2Ni4yNCA2OS4wNyA2Ni4wNSA2OC44MyA2NS4xMyA2OC41MSA2NC4yNiA2Ny45MiA2My41IDY3LjYzIDYzLjEyIDY3LjUyIDYyLjY4IDY3LjY1IDYyLjE5IDY3LjcgNjIuMDEgNjcuNzMgNjEuODIgNjcuNzcgNjEuNjMgNjcuODYgNjEuMiA2Ny43NSA2MS4wMiA2Ny4zNCA2MC44NyA2Ni45NyA2MC43NCA2Ni41OSA2MC42IDY2LjIzIDYwLjQ1IDY1LjcgNjAuMjIgNjUuNTkgNjAuMDIgNjUuNyA1OS40NSA2NS43MiA1OS4zNCA2NS43NiA1OS4yNCA2NS43OSA1OS4xNCA2NS44OCA1OC44OCA2Ni4wNSA1OC43IDY2LjMzIDU4LjY4IDY2LjY0IDU4LjY1IDY2LjkxIDU4LjczIDY3LjA3IDU5LjAyIDY3LjI3IDU5LjM3IDY3LjM1IDU5Ljc0IDY3LjE2IDYwLjEzIDY3LjA5IDYwLjI5IDY3LjA4IDYwLjQzIDY3LjI5IDYwLjUgNjcuNTMgNjAuNTcgNjcuNzcgNjAuNDIgNjcuODEgNjAuMTcgNjcuOSA1OS42IDY3Ljg1IDU5LjA1IDY3LjYxIDU4LjUzIDY3LjI4IDU3Ljc5IDY2LjQ0IDU3LjUzIDY1Ljc0IDU3Ljk2IDY1LjE1IDU4LjMyIDY1LjA4IDU4Ljg5IDY1LjExIDU5LjUgNjUuMTEgNTkuNjcgNjUuMTMgNTkuODMgNjUuMTQgNTkuOTcgNjQuODYgNTkuOTQgNjQuNjEgNTkuODggNjQuMzcgNTkuODkgNjMuODUgNTkuOSA2My45MiA1OS44OCA2My45MSA1OS40NCA2My45MSA1OS4zOCA2My45MSA1OS4zMSA2My45IDU5LjI1IDYzLjc4IDU4LjkgNjMuNzIgNTguNTIgNjMuNTMgNTguMjIgNjMuMjUgNTcuNzcgNjIuNjcgNTcuNzkgNjIuNDEgNTguMjIgNjIgNTguOTMgNjEuOTggNTkuNjYgNjIuMzUgNjAuMzkgNjIuMzkgNjAuNDcgNjIuNTIgNjAuNTkgNjIuNTggNjAuNTcgNjIuNjkgNjAuNTQgNjIuNzcgNjAuNDMgNjIuODkgNjAuMzIgNjIuMyA2MC4xMiA2Mi4yMyA1OS4yNyA2Mi41IDU4LjkyIDYyLjU0IDU4Ljg2IDYyLjYgNTguODEgNjIuNjYgNTguNzggNjIuOTYgNTguNjIgNjMuMjkgNTguNzEgNjMuNCA1OS4wMyA2My40OSA1OS4yOSA2My41NCA1OS41OSA2My41MyA1OS44NyA2My41MyA2MCA2My4zNSA2MC4xMyA2My4yMyA2MC4yNCA2Mi45NiA2MC40OCA2Mi42OCA2MC43IDYyLjQxIDYwLjk0IDYyLjMxIDYxLjAzIDYyLjIyIDYxLjEzIDYyLjE1IDYxLjI0IDYyLjAzIDYxLjQ0IDYyLjA1IDYxLjYxIDYyLjI3IDYxLjc0IDYyLjQxIDYxLjgyIDYyLjU1IDYxLjkzIDYyLjY0IDYyLjA2IDYyLjkyIDYyLjQ3IDYzLjMyIDYyLjU4IDYzLjc5IDYyLjU4IDY0LjY5IDYyLjU4IDY1LjUxIDYyLjMgNjYuMzMgNjEuOTggNjYuNTUgNjEuOSA2Ni43MyA2MS43MiA2Ni45MyA2MS41OSA2Ny4wMSA2MS41NCA2Ny4xMSA2MS41IDY3LjIxIDYxLjQ5IDY3LjI0IDYxLjQ5IDY3LjMzIDYxLjYxIDY3LjMyIDYxLjY0IDY3LjI5IDYxLjczIDY3LjIyIDYxLjgxIDY3LjE1IDYxLjg5IDY3LjEyIDYxLjkyIDY3LjA3IDYxLjkzIDY3LjAzIDYxLjk0IDY2LjQ5IDYyLjE1IDY1Ljk1IDYyLjM1IDY1LjQyIDYyLjU5IDY0LjcyIDYyLjkgNjMuOTkgNjMuMDMgNjMuMjMgNjIuOTEgNjMuMTcgNjIuOTEgNjMuMTEgNjIuOTEgNjMuMDIgNjIuOTFaTTY4LjczIDYyLjA3QzY4LjczIDYyLjE5IDY4LjY4IDYyLjM1IDY4LjczIDYyLjQ0IDY4LjkgNjIuNjkgNjkuMTEgNjIuOTMgNjkuMzMgNjMuMTUgNjkuNDYgNjMuMjcgNjkuNjIgNjMuMjQgNjkuNzEgNjMuMDYgNjkuNzkgNjIuODggNjkuOCA2Mi43MSA2OS42MSA2Mi41OSA2OS4zNCA2Mi40MyA2OS4wNyA2Mi4yNyA2OC43MiA2Mi4wN1pNNjcuOTEgNTUuODhDNjcuNjQgNTUuNjkgNjcuNDUgNTUuNTMgNjcuMjIgNTUuNDEgNjcuMDYgNTUuMzIgNjYuOTggNTUuNDMgNjYuOTQgNTUuNTkgNjYuOSA1NS43NyA2Ni44NCA1NS45NCA2Ni44IDU2LjEyIDY2Ljc5IDU2LjE4IDY2LjggNTYuMjUgNjYuODEgNTYuMzEgNjYuODcgNTYuMjkgNjYuOTIgNTYuMjggNjYuOTggNTYuMjYgNjcuMTkgNTYuMTggNjcuNCA1Ni4wOSA2Ny42MSA1NiA2Ny42OCA1NS45NyA2Ny43NSA1NS45NCA2Ny45IDU1Ljg4Wk01OS43MyA2Ni45NkM1OS41NyA2Ny4yNyA1OS40MyA2Ny41MyA1OS4yNyA2Ny44NCA1OS42NiA2Ny42OSA1OS44NSA2Ny4zMiA1OS43MyA2Ni45NlpNNjYuOTMgNTkuNTdDNjcuMDcgNTkuNDIgNjYuOTggNTkuMjcgNjYuODkgNTkuMTQgNjYuOCA1OS4wMSA2Ni43IDU4Ljg3IDY2LjU0IDU4Ljk5IDY2LjY3IDU5LjE4IDY2Ljc5IDU5LjM1IDY2LjkzIDU5LjU3Wk02My4xNyA1OS43OEM2My4xNyA1OS43OCA2My4yMiA1OS43NiA2My4yNSA1OS43NSA2My4zMSA1OS41IDYzLjI4IDU5LjI4IDYzLjA5IDU5LjA5IDYzLjA2IDU5LjA2IDYyLjk4IDU5LjA5IDYyLjk2IDU5LjA5IDYzLjA0IDU5LjM1IDYzLjEgNTkuNTcgNjMuMTcgNTkuNzlaIi8+PHJlY3QgZmlsbD0ibm9uZSIgc3Ryb2tlLWxpbmVqb2luPSJyb3VuZCIgc3Ryb2tlLWxpbmVjYXA9InJvdW5kIiBzdHJva2Utd2lkdGg9IjEuNSIgc3Ryb2tlPSIjMEE0NjZBIiBoZWlnaHQ9IjMzLjA0IiB3aWR0aD0iMzMuMDQiIHk9IjUxLjI2IiB4PSI0OC4wMyIvPjwvc3ZnPg==" vertex="1" parent="1">
          <mxGeometry x="450" y="-374" width="88" height="88" as="geometry" />
        </mxCell>
        <mxCell id="xc72Eefd26BbPK5W_Sga-12" value="only&lt;br&gt;active&lt;br&gt;checks" style="endArrow=classic;html=1;rounded=0;fontSize=12;startSize=8;endSize=8;curved=1;exitX=0.39;exitY=0.985;exitDx=0;exitDy=0;exitPerimeter=0;entryX=0.25;entryY=0;entryDx=0;entryDy=0;" edge="1" parent="1" source="xc72Eefd26BbPK5W_Sga-11" target="xc72Eefd26BbPK5W_Sga-8">
          <mxGeometry width="50" height="50" relative="1" as="geometry">
            <mxPoint x="341" y="-54" as="sourcePoint" />
            <mxPoint x="391" y="-104" as="targetPoint" />
          </mxGeometry>
        </mxCell>
        <mxCell id="xc72Eefd26BbPK5W_Sga-13" value="only&lt;br&gt;active&lt;br&gt;check" style="edgeStyle=none;curved=1;rounded=0;orthogonalLoop=1;jettySize=auto;html=1;entryX=0.658;entryY=0.014;entryDx=0;entryDy=0;entryPerimeter=0;fontSize=12;startSize=8;endSize=8;" edge="1" parent="1" source="xc72Eefd26BbPK5W_Sga-10" target="xc72Eefd26BbPK5W_Sga-8">
          <mxGeometry relative="1" as="geometry" />
        </mxCell>
        <mxCell id="xc72Eefd26BbPK5W_Sga-14" value="reporting oldes metrics first" style="shape=flexArrow;endArrow=classic;html=1;rounded=0;fontSize=12;startSize=8;endSize=8;curved=1;" edge="1" parent="1">
          <mxGeometry width="50" height="50" relative="1" as="geometry">
            <mxPoint x="443" y="136" as="sourcePoint" />
            <mxPoint x="17" y="136" as="targetPoint" />
          </mxGeometry>
        </mxCell>
        <mxCell id="xc72Eefd26BbPK5W_Sga-15" value="newest&lt;br&gt;data" style="text;html=1;align=center;verticalAlign=middle;whiteSpace=wrap;rounded=0;fontSize=16;" vertex="1" parent="1">
          <mxGeometry x="336" y="-168" width="60" height="30" as="geometry" />
        </mxCell>
        <mxCell id="xc72Eefd26BbPK5W_Sga-16" value="oldest&lt;br&gt;data forwarded&lt;br&gt;first" style="text;html=1;align=center;verticalAlign=middle;whiteSpace=wrap;rounded=0;fontSize=16;" vertex="1" parent="1">
          <mxGeometry x="325" y="71" width="60" height="30" as="geometry" />
        </mxCell>
        <mxCell id="xc72Eefd26BbPK5W_Sga-17" value="triggers&lt;br&gt;will analyze oldest data first" style="text;html=1;align=center;verticalAlign=middle;whiteSpace=wrap;rounded=0;fontSize=16;" vertex="1" parent="1">
          <mxGeometry x="-78.5" y="-299" width="101" height="176" as="geometry" />
        </mxCell>
        <mxCell id="xc72Eefd26BbPK5W_Sga-3" value="" style="shape=image;verticalLabelPosition=bottom;verticalAlign=top;imageAspect=0;aspect=fixed;image=data:image/svg+xml,PHN2ZyB4bWxuczp4bGluaz0iaHR0cDovL3d3dy53My5vcmcvMTk5OS94bGluayIgeG1sbnM9Imh0dHA6Ly93d3cudzMub3JnLzIwMDAvc3ZnIiBvdmVyZmxvdz0iaGlkZGVuIiBpZD0iTGF5ZXJfMSIgdmlld0JveD0iMCAwIDg4IDg4Ij48ZGVmcy8+PHBhdGggZmlsbD0ibm9uZSIgc3Ryb2tlLWxpbmVqb2luPSJyb3VuZCIgc3Ryb2tlLWxpbmVjYXA9InJvdW5kIiBzdHJva2Utd2lkdGg9IjEuNSIgc3Ryb2tlPSIjMEE0NjZBIiBkPSJNNjcuNDcgNjYuODEgNjguMDQgNjguNCA2OS40OSA2OSA3MS4wMSA2OC4yOCA3Mi40MSA2OS42OCA3MS42OSA3MS4yQzcxLjkzIDcxLjc4IDcyLjA1IDcyLjA3IDcyLjI5IDcyLjY1TDczLjg4IDczLjIyIDczLjg4IDc1LjIxIDcyLjI5IDc1Ljc4QzcyLjA1IDc2LjM2IDcxLjkzIDc2LjY1IDcxLjY5IDc3LjIzTDcyLjQxIDc4Ljc1IDcxLjAxIDgwLjE1IDY5LjQ5IDc5LjQzIDY4LjA0IDgwLjAzIDY3LjQ3IDgxLjYyIDY1LjQ4IDgxLjYyIDY0LjkxIDgwLjAzIDYzLjQ2IDc5LjQzIDYxLjk0IDgwLjE1IDYwLjU0IDc4Ljc1IDYxLjI2IDc3LjIzQzYxLjAyIDc2LjY1IDYwLjkgNzYuMzYgNjAuNjYgNzUuNzhMNTkuMDcgNzUuMjEgNTkuMDcgNzMuMjIgNjAuNjYgNzIuNjVDNjAuOSA3Mi4wNyA2MS4wMiA3MS43OCA2MS4yNiA3MS4yTDYwLjU0IDY5LjY4QzYxLjAwNjcgNjkuMjEzMyA2MS40NzMzIDY4Ljc0NjcgNjEuOTQgNjguMjhMNjMuNDYgNjkgNjQuOTEgNjguNCA2NS40OCA2Ni44MSA2Ny40NyA2Ni44MVoiLz48Y2lyY2xlIHRyYW5zZm9ybT0ibWF0cml4KDAuNjQ1NDU4IC0wLjc2Mzc5NiAwLjc2Mzc5NiAwLjY0NTQ1OCAtMzMuMTEgNzcuMDcpIiBmaWxsPSJub25lIiBzdHJva2UtbGluZWpvaW49InJvdW5kIiBzdHJva2UtbGluZWNhcD0icm91bmQiIHN0cm9rZS13aWR0aD0iMS41IiBzdHJva2U9IiMwQTQ2NkEiIGlkPSJjaXJjbGUzMCIgcj0iMy4yMyIgY3k9Ijc0LjIiIGN4PSI2Ni40NiIvPjxnPjxwYXRoIGZpbGw9IiNENDAwMDAiIHN0cm9rZS13aWR0aD0iMCIgZD0iTTE4LjUzIDExLjI4IDcwLjM2IDExLjI4IDcwLjM2IDI0Ljg1IDE4LjUzIDI0Ljg1IDE4LjUzIDExLjI4IDE4LjUzIDExLjI4WiIvPjxwYXRoIGZpbGw9IiNGRkZGRkYiIHN0cm9rZS13aWR0aD0iMCIgZD0iTTIwLjc1IDEzLjM1IDI4LjI1IDEzLjM1IDI4LjI1IDE0LjMyIDIyLjIyIDIxLjcxIDI4LjQgMjEuNzEgMjguNCAyMi43OCAyMC42MSAyMi43OCAyMC42MSAyMS44MSAyNi42NCAxNC40MiAyMC43NiAxNC40MiAyMC43NiAxMy4zNSAyMC43NiAxMy4zNVoiLz48cGF0aCBmaWxsPSIjRkZGRkZGIiBzdHJva2Utd2lkdGg9IjAiIGQ9Ik0zMy40NiAxNC42IDMxLjcxIDE5LjMgMzUuMjIgMTkuMyAzMy40NiAxNC42IDMzLjQ2IDE0LjZaTTMyLjczIDEzLjM0IDM0LjE5IDEzLjM0IDM3LjgzIDIyLjc4IDM2LjQ5IDIyLjc4IDM1LjYyIDIwLjM2IDMxLjMyIDIwLjM2IDMwLjQ1IDIyLjc4IDI5LjA5IDIyLjc4IDMyLjczIDEzLjM0IDMyLjczIDEzLjM0WiIvPjxwYXRoIGZpbGw9IiNGRkZGRkYiIHN0cm9rZS13aWR0aD0iMCIgZD0iTTQwLjUxIDE4LjI4IDQwLjUxIDIxLjc0IDQyLjU4IDIxLjc0QzQzLjI3IDIxLjc0IDQzLjc5IDIxLjYgNDQuMTIgMjEuMzEgNDQuNDUgMjEuMDMgNDQuNjIgMjAuNTkgNDQuNjIgMjAgNDQuNjIgMTkuNDEgNDQuNDUgMTguOTcgNDQuMTIgMTguNjkgNDMuNzkgMTguNDEgNDMuMjcgMTguMjcgNDIuNTggMTguMjdMNDAuNTEgMTguMjdaTTQwLjUxIDE0LjQgNDAuNTEgMTcuMjQgNDIuNDIgMTcuMjRDNDMuMDUgMTcuMjQgNDMuNTIgMTcuMTIgNDMuODMgMTYuODkgNDQuMTQgMTYuNjYgNDQuMjkgMTYuMyA0NC4yOSAxNS44MiA0NC4yOSAxNS4zNCA0NC4xNCAxNC45OSA0My44MyAxNC43NSA0My41MiAxNC41MSA0My4wNSAxNC40IDQyLjQyIDE0LjRMNDAuNTEgMTQuNFpNMzkuMjIgMTMuMzUgNDIuNTIgMTMuMzVDNDMuNSAxMy4zNSA0NC4yNiAxMy41NSA0NC43OSAxMy45NiA0NS4zMiAxNC4zNiA0NS41OSAxNC45NCA0NS41OSAxNS42OSA0NS41OSAxNi4yNyA0NS40NSAxNi43MyA0NS4xOCAxNy4wNyA0NC45MSAxNy40MSA0NC41MSAxNy42MiA0My45OCAxNy43MSA0NC42MSAxNy44NCA0NS4xMSAxOC4xMyA0NS40NiAxOC41NSA0NS44MSAxOC45OCA0NS45OSAxOS41MSA0NS45OSAyMC4xNSA0NS45OSAyMC45OSA0NS43IDIxLjY0IDQ1LjEyIDIyLjEgNDQuNTQgMjIuNTYgNDMuNzIgMjIuNzkgNDIuNjUgMjIuNzlMMzkuMjMgMjIuNzkgMzkuMjMgMTMuMzUgMzkuMjMgMTMuMzVaIi8+PHBhdGggZmlsbD0iI0ZGRkZGRiIgc3Ryb2tlLXdpZHRoPSIwIiBkPSJNNDkuMzQgMTguMjggNDkuMzQgMjEuNzQgNTEuNDEgMjEuNzRDNTIuMSAyMS43NCA1Mi42MiAyMS42IDUyLjk1IDIxLjMxIDUzLjI4IDIxLjAzIDUzLjQ1IDIwLjU5IDUzLjQ1IDIwIDUzLjQ1IDE5LjQxIDUzLjI4IDE4Ljk3IDUyLjk1IDE4LjY5IDUyLjYyIDE4LjQxIDUyLjEgMTguMjcgNTEuNDEgMTguMjdMNDkuMzQgMTguMjdaTTQ5LjM0IDE0LjQgNDkuMzQgMTcuMjQgNTEuMjUgMTcuMjRDNTEuODggMTcuMjQgNTIuMzUgMTcuMTIgNTIuNjYgMTYuODkgNTIuOTcgMTYuNjYgNTMuMTIgMTYuMyA1My4xMiAxNS44MiA1My4xMiAxNS4zNCA1Mi45NyAxNC45OSA1Mi42NiAxNC43NSA1Mi4zNSAxNC41MSA1MS44OCAxNC40IDUxLjI1IDE0LjRMNDkuMzQgMTQuNFpNNDguMDUgMTMuMzUgNTEuMzUgMTMuMzVDNTIuMzMgMTMuMzUgNTMuMDkgMTMuNTUgNTMuNjIgMTMuOTYgNTQuMTUgMTQuMzYgNTQuNDIgMTQuOTQgNTQuNDIgMTUuNjkgNTQuNDIgMTYuMjcgNTQuMjggMTYuNzMgNTQuMDEgMTcuMDcgNTMuNzQgMTcuNDEgNTMuMzQgMTcuNjIgNTIuODEgMTcuNzEgNTMuNDQgMTcuODQgNTMuOTQgMTguMTMgNTQuMjkgMTguNTUgNTQuNjQgMTguOTggNTQuODIgMTkuNTEgNTQuODIgMjAuMTUgNTQuODIgMjAuOTkgNTQuNTMgMjEuNjQgNTMuOTUgMjIuMSA1My4zNyAyMi41NiA1Mi41NSAyMi43OSA1MS40OCAyMi43OUw0OC4wNiAyMi43OSA0OC4wNiAxMy4zNSA0OC4wNiAxMy4zNVoiLz48cGF0aCBmaWxsPSIjRkZGRkZGIiBzdHJva2Utd2lkdGg9IjAiIGQ9Ik02MC42MiAxMy4zNSA2Mi4wNCAxMy4zNSA2NC4yOCAxNi43NCA2Ni41NCAxMy4zNSA2Ny45MSAxMy4zNSA2NC45NiAxNy43NyA2OC4yOCAyMi43OSA2Ni44NiAyMi43OSA2NC4yNSAxOC44NCA2MS42MSAyMi43OSA2MC4yNCAyMi43OSA2My41NyAxNy44MSA2MC42MiAxMy4zNVoiLz48cGF0aCBmaWxsPSIjRkZGRkZGIiBzdHJva2Utd2lkdGg9IjAiIGQ9Ik01Ni44OSAxMy4zNSA1OC4xOCAxMy4zNSA1OC4xOCAyMi43OSA1Ni44OSAyMi43OSA1Ni44OSAxMy4zNSA1Ni44OSAxMy4zNVoiLz48L2c+PHJlY3QgZmlsbD0ibm9uZSIgc3Ryb2tlLWxpbmVqb2luPSJyb3VuZCIgc3Ryb2tlLWxpbmVjYXA9InJvdW5kIiBzdHJva2Utd2lkdGg9IjEuNSIgc3Ryb2tlPSIjMEE0NjZBIiBoZWlnaHQ9IjEzLjQ4IiB3aWR0aD0iNTEuNDYiIHk9IjI4LjI1IiB4PSIxOC41MyIvPjxyZWN0IGZpbGw9Im5vbmUiIHN0cm9rZS1saW5lam9pbj0icm91bmQiIHN0cm9rZS1saW5lY2FwPSJyb3VuZCIgc3Ryb2tlLXdpZHRoPSIxLjUiIHN0cm9rZT0iIzBBNDY2QSIgaGVpZ2h0PSIxMy40OCIgd2lkdGg9IjUxLjQ2IiB5PSI0NC41MyIgeD0iMTguNTMiLz48cGF0aCBmaWxsPSJub25lIiBzdHJva2UtbGluZWpvaW49InJvdW5kIiBzdHJva2UtbGluZWNhcD0icm91bmQiIHN0cm9rZS13aWR0aD0iMS41IiBzdHJva2U9IiMwQTQ2NkEiIGQ9Ik01Ni4yOCA3NC4xIDE4LjUzIDc0LjEgMTguNTMgNjAuNjIgNjkuOTkgNjAuNjIgNjkuOTkgNjYuMTgiLz48Zz48bGluZSBmaWxsPSJub25lIiBzdHJva2UtbGluZWpvaW49InJvdW5kIiBzdHJva2UtbGluZWNhcD0icm91bmQiIHN0cm9rZS13aWR0aD0iMS41IiBzdHJva2U9IiMwQTQ2NkEiIHkyPSIzMy4xNSIgeDI9IjMxLjExIiB5MT0iMzMuMTUiIHgxPSIyMy42NyIvPjxsaW5lIGZpbGw9Im5vbmUiIHN0cm9rZS1saW5lam9pbj0icm91bmQiIHN0cm9rZS1saW5lY2FwPSJyb3VuZCIgc3Ryb2tlLXdpZHRoPSIxLjUiIHN0cm9rZT0iIzBBNDY2QSIgeTI9IjMzLjE1IiB4Mj0iNDAuODkiIHkxPSIzMy4xNSIgeDE9IjMzLjQ2Ii8+PGxpbmUgZmlsbD0ibm9uZSIgc3Ryb2tlLWxpbmVqb2luPSJyb3VuZCIgc3Ryb2tlLWxpbmVjYXA9InJvdW5kIiBzdHJva2Utd2lkdGg9IjEuNSIgc3Ryb2tlPSIjMEE0NjZBIiB5Mj0iMzcuNDQiIHgyPSIzMS4xMSIgeTE9IjM3LjQ0IiB4MT0iMjMuNjciLz48bGluZSBmaWxsPSJub25lIiBzdHJva2UtbGluZWpvaW49InJvdW5kIiBzdHJva2UtbGluZWNhcD0icm91bmQiIHN0cm9rZS13aWR0aD0iMS41IiBzdHJva2U9IiMwQTQ2NkEiIHkyPSIzNy40NCIgeDI9IjQwLjg5IiB5MT0iMzcuNDQiIHgxPSIzMy40NiIvPjwvZz48Zz48bGluZSBmaWxsPSJub25lIiBzdHJva2UtbGluZWpvaW49InJvdW5kIiBzdHJva2UtbGluZWNhcD0icm91bmQiIHN0cm9rZS13aWR0aD0iMS41IiBzdHJva2U9IiMwQTQ2NkEiIHkyPSI0OS40MyIgeDI9IjMxLjExIiB5MT0iNDkuNDMiIHgxPSIyMy42NyIvPjxsaW5lIGZpbGw9Im5vbmUiIHN0cm9rZS1saW5lam9pbj0icm91bmQiIHN0cm9rZS1saW5lY2FwPSJyb3VuZCIgc3Ryb2tlLXdpZHRoPSIxLjUiIHN0cm9rZT0iIzBBNDY2QSIgeTI9IjQ5LjQzIiB4Mj0iNDAuODkiIHkxPSI0OS40MyIgeDE9IjMzLjQ2Ii8+PGxpbmUgZmlsbD0ibm9uZSIgc3Ryb2tlLWxpbmVqb2luPSJyb3VuZCIgc3Ryb2tlLWxpbmVjYXA9InJvdW5kIiBzdHJva2Utd2lkdGg9IjEuNSIgc3Ryb2tlPSIjMEE0NjZBIiB5Mj0iNTMuNzIiIHgyPSIzMS4xMSIgeTE9IjUzLjcyIiB4MT0iMjMuNjciLz48bGluZSBmaWxsPSJub25lIiBzdHJva2UtbGluZWpvaW49InJvdW5kIiBzdHJva2UtbGluZWNhcD0icm91bmQiIHN0cm9rZS13aWR0aD0iMS41IiBzdHJva2U9IiMwQTQ2NkEiIHkyPSI1My43MiIgeDI9IjQwLjg5IiB5MT0iNTMuNzIiIHgxPSIzMy40NiIvPjwvZz48Zz48bGluZSBmaWxsPSJub25lIiBzdHJva2UtbGluZWpvaW49InJvdW5kIiBzdHJva2UtbGluZWNhcD0icm91bmQiIHN0cm9rZS13aWR0aD0iMS41IiBzdHJva2U9IiMwQTQ2NkEiIHkyPSI2NS41MiIgeDI9IjMxLjExIiB5MT0iNjUuNTIiIHgxPSIyMy42NyIvPjxsaW5lIGZpbGw9Im5vbmUiIHN0cm9rZS1saW5lam9pbj0icm91bmQiIHN0cm9rZS1saW5lY2FwPSJyb3VuZCIgc3Ryb2tlLXdpZHRoPSIxLjUiIHN0cm9rZT0iIzBBNDY2QSIgeTI9IjY1LjUyIiB4Mj0iNDAuODkiIHkxPSI2NS41MiIgeDE9IjMzLjQ2Ii8+PGxpbmUgZmlsbD0ibm9uZSIgc3Ryb2tlLWxpbmVqb2luPSJyb3VuZCIgc3Ryb2tlLWxpbmVjYXA9InJvdW5kIiBzdHJva2Utd2lkdGg9IjEuNSIgc3Ryb2tlPSIjMEE0NjZBIiB5Mj0iNjkuODEiIHgyPSIzMS4xMSIgeTE9IjY5LjgxIiB4MT0iMjMuNjciLz48bGluZSBmaWxsPSJub25lIiBzdHJva2UtbGluZWpvaW49InJvdW5kIiBzdHJva2UtbGluZWNhcD0icm91bmQiIHN0cm9rZS13aWR0aD0iMS41IiBzdHJva2U9IiMwQTQ2NkEiIHkyPSI2OS44MSIgeDI9IjQwLjg5IiB5MT0iNjkuODEiIHgxPSIzMy40NiIvPjwvZz48Zz48Y2lyY2xlIGZpbGw9Im5vbmUiIHN0cm9rZS1taXRlcmxpbWl0PSIxMCIgc3Ryb2tlLXdpZHRoPSIxLjM5IiBzdHJva2U9IiNENDAwMDAiIHI9IjIuMjQiIGN5PSIzNS40IiBjeD0iNTAuMzQiLz48Y2lyY2xlIGZpbGw9Im5vbmUiIHN0cm9rZS1taXRlcmxpbWl0PSIxMCIgc3Ryb2tlLXdpZHRoPSIxLjM5IiBzdHJva2U9IiNENDAwMDAiIHI9IjIuMjQiIGN5PSIzNS40IiBjeD0iNjAuODUiLz48Y2lyY2xlIGZpbGw9Im5vbmUiIHN0cm9rZS1taXRlcmxpbWl0PSIxMCIgc3Ryb2tlLXdpZHRoPSIxLjM5IiBzdHJva2U9IiNENDAwMDAiIHI9IjIuMjQiIGN5PSI1MS4yNyIgY3g9IjUwLjM0Ii8+PGNpcmNsZSBmaWxsPSJub25lIiBzdHJva2UtbWl0ZXJsaW1pdD0iMTAiIHN0cm9rZS13aWR0aD0iMS4zOSIgc3Ryb2tlPSIjRDQwMDAwIiByPSIyLjI0IiBjeT0iNTEuMjciIGN4PSI2MC44NSIvPjxjaXJjbGUgZmlsbD0ibm9uZSIgc3Ryb2tlLW1pdGVybGltaXQ9IjEwIiBzdHJva2Utd2lkdGg9IjEuMzkiIHN0cm9rZT0iI0Q0MDAwMCIgcj0iMi4yNCIgY3k9IjY3LjYzIiBjeD0iNTAuMzQiLz48L2c+PC9zdmc+" vertex="1" parent="1">
          <mxGeometry x="-78.5" y="-128" width="88" height="88" as="geometry" />
        </mxCell>
        <mxCell id="xc72Eefd26BbPK5W_Sga-2" value="" style="shape=image;verticalLabelPosition=bottom;verticalAlign=top;imageAspect=0;aspect=fixed;image=data:image/svg+xml,PHN2ZyB4bWxuczp4bGluaz0iaHR0cDovL3d3dy53My5vcmcvMTk5OS94bGluayIgeG1sbnM9Imh0dHA6Ly93d3cudzMub3JnLzIwMDAvc3ZnIiBvdmVyZmxvdz0iaGlkZGVuIiBpZD0iTGF5ZXJfMSIgdmlld0JveD0iMCAwIDg4IDg4Ij48ZGVmcy8+PHBhdGggZmlsbD0ibm9uZSIgc3Ryb2tlLWxpbmVqb2luPSJyb3VuZCIgc3Ryb2tlLWxpbmVjYXA9InJvdW5kIiBzdHJva2Utd2lkdGg9IjEuNSIgc3Ryb2tlPSIjMEE0NjZBIiBkPSJNNjcuNDcgNjYuODEgNjguMDQgNjguNCA2OS40OSA2OSA3MS4wMSA2OC4yOCA3Mi40MSA2OS42OCA3MS42OSA3MS4yQzcxLjkzIDcxLjc4IDcyLjA1IDcyLjA3IDcyLjI5IDcyLjY1TDczLjg4IDczLjIyIDczLjg4IDc1LjIxIDcyLjI5IDc1Ljc4QzcyLjA1IDc2LjM2IDcxLjkzIDc2LjY1IDcxLjY5IDc3LjIzTDcyLjQxIDc4Ljc1IDcxLjAxIDgwLjE1IDY5LjQ5IDc5LjQzIDY4LjA0IDgwLjAzIDY3LjQ3IDgxLjYyIDY1LjQ4IDgxLjYyIDY0LjkxIDgwLjAzIDYzLjQ2IDc5LjQzIDYxLjk0IDgwLjE1IDYwLjU0IDc4Ljc1IDYxLjI2IDc3LjIzQzYxLjAyIDc2LjY1IDYwLjkgNzYuMzYgNjAuNjYgNzUuNzhMNTkuMDcgNzUuMjEgNTkuMDcgNzMuMjIgNjAuNjYgNzIuNjVDNjAuOSA3Mi4wNyA2MS4wMiA3MS43OCA2MS4yNiA3MS4yTDYwLjU0IDY5LjY4QzYxLjAwNjcgNjkuMjEzMyA2MS40NzMzIDY4Ljc0NjcgNjEuOTQgNjguMjhMNjMuNDYgNjkgNjQuOTEgNjguNCA2NS40OCA2Ni44MSA2Ny40NyA2Ni44MVoiLz48Y2lyY2xlIHRyYW5zZm9ybT0ibWF0cml4KDAuNjQ1NDU4IC0wLjc2Mzc5NiAwLjc2Mzc5NiAwLjY0NTQ1OCAtMzMuMTEgNzcuMDcpIiBmaWxsPSJub25lIiBzdHJva2UtbGluZWpvaW49InJvdW5kIiBzdHJva2UtbGluZWNhcD0icm91bmQiIHN0cm9rZS13aWR0aD0iMS41IiBzdHJva2U9IiMwQTQ2NkEiIGlkPSJjaXJjbGUzMCIgcj0iMy4yMyIgY3k9Ijc0LjIiIGN4PSI2Ni40NiIvPjxyZWN0IGZpbGw9Im5vbmUiIHN0cm9rZS1saW5lam9pbj0icm91bmQiIHN0cm9rZS1saW5lY2FwPSJyb3VuZCIgc3Ryb2tlLXdpZHRoPSIxLjUiIHN0cm9rZT0iIzBBNDY2QSIgaGVpZ2h0PSIxMy40OCIgd2lkdGg9IjUxLjQ2IiB5PSIyOC4yNSIgeD0iMTguNTMiLz48cmVjdCBmaWxsPSJub25lIiBzdHJva2UtbGluZWpvaW49InJvdW5kIiBzdHJva2UtbGluZWNhcD0icm91bmQiIHN0cm9rZS13aWR0aD0iMS41IiBzdHJva2U9IiMwQTQ2NkEiIGhlaWdodD0iMTMuNDgiIHdpZHRoPSI1MS40NiIgeT0iNDQuNTMiIHg9IjE4LjUzIi8+PHBhdGggZmlsbD0ibm9uZSIgc3Ryb2tlLWxpbmVqb2luPSJyb3VuZCIgc3Ryb2tlLWxpbmVjYXA9InJvdW5kIiBzdHJva2Utd2lkdGg9IjEuNSIgc3Ryb2tlPSIjMEE0NjZBIiBkPSJNNTYuMjggNzQuMSAxOC41MyA3NC4xIDE4LjUzIDYwLjYyIDY5Ljk5IDYwLjYyIDY5Ljk5IDY2LjE4Ii8+PGc+PGxpbmUgZmlsbD0ibm9uZSIgc3Ryb2tlLWxpbmVqb2luPSJyb3VuZCIgc3Ryb2tlLWxpbmVjYXA9InJvdW5kIiBzdHJva2Utd2lkdGg9IjEuNSIgc3Ryb2tlPSIjMEE0NjZBIiB5Mj0iMzMuMTUiIHgyPSIzMS4xMSIgeTE9IjMzLjE1IiB4MT0iMjMuNjciLz48bGluZSBmaWxsPSJub25lIiBzdHJva2UtbGluZWpvaW49InJvdW5kIiBzdHJva2UtbGluZWNhcD0icm91bmQiIHN0cm9rZS13aWR0aD0iMS41IiBzdHJva2U9IiMwQTQ2NkEiIHkyPSIzMy4xNSIgeDI9IjQwLjg5IiB5MT0iMzMuMTUiIHgxPSIzMy40NiIvPjxsaW5lIGZpbGw9Im5vbmUiIHN0cm9rZS1saW5lam9pbj0icm91bmQiIHN0cm9rZS1saW5lY2FwPSJyb3VuZCIgc3Ryb2tlLXdpZHRoPSIxLjUiIHN0cm9rZT0iIzBBNDY2QSIgeTI9IjM3LjQ0IiB4Mj0iMzEuMTEiIHkxPSIzNy40NCIgeDE9IjIzLjY3Ii8+PGxpbmUgZmlsbD0ibm9uZSIgc3Ryb2tlLWxpbmVqb2luPSJyb3VuZCIgc3Ryb2tlLWxpbmVjYXA9InJvdW5kIiBzdHJva2Utd2lkdGg9IjEuNSIgc3Ryb2tlPSIjMEE0NjZBIiB5Mj0iMzcuNDQiIHgyPSI0MC44OSIgeTE9IjM3LjQ0IiB4MT0iMzMuNDYiLz48L2c+PGc+PGxpbmUgZmlsbD0ibm9uZSIgc3Ryb2tlLWxpbmVqb2luPSJyb3VuZCIgc3Ryb2tlLWxpbmVjYXA9InJvdW5kIiBzdHJva2Utd2lkdGg9IjEuNSIgc3Ryb2tlPSIjMEE0NjZBIiB5Mj0iNDkuNDMiIHgyPSIzMS4xMSIgeTE9IjQ5LjQzIiB4MT0iMjMuNjciLz48bGluZSBmaWxsPSJub25lIiBzdHJva2UtbGluZWpvaW49InJvdW5kIiBzdHJva2UtbGluZWNhcD0icm91bmQiIHN0cm9rZS13aWR0aD0iMS41IiBzdHJva2U9IiMwQTQ2NkEiIHkyPSI0OS40MyIgeDI9IjQwLjg5IiB5MT0iNDkuNDMiIHgxPSIzMy40NiIvPjxsaW5lIGZpbGw9Im5vbmUiIHN0cm9rZS1saW5lam9pbj0icm91bmQiIHN0cm9rZS1saW5lY2FwPSJyb3VuZCIgc3Ryb2tlLXdpZHRoPSIxLjUiIHN0cm9rZT0iIzBBNDY2QSIgeTI9IjUzLjcyIiB4Mj0iMzEuMTEiIHkxPSI1My43MiIgeDE9IjIzLjY3Ii8+PGxpbmUgZmlsbD0ibm9uZSIgc3Ryb2tlLWxpbmVqb2luPSJyb3VuZCIgc3Ryb2tlLWxpbmVjYXA9InJvdW5kIiBzdHJva2Utd2lkdGg9IjEuNSIgc3Ryb2tlPSIjMEE0NjZBIiB5Mj0iNTMuNzIiIHgyPSI0MC44OSIgeTE9IjUzLjcyIiB4MT0iMzMuNDYiLz48L2c+PGc+PGxpbmUgZmlsbD0ibm9uZSIgc3Ryb2tlLWxpbmVqb2luPSJyb3VuZCIgc3Ryb2tlLWxpbmVjYXA9InJvdW5kIiBzdHJva2Utd2lkdGg9IjEuNSIgc3Ryb2tlPSIjMEE0NjZBIiB5Mj0iNjUuNTIiIHgyPSIzMS4xMSIgeTE9IjY1LjUyIiB4MT0iMjMuNjciLz48bGluZSBmaWxsPSJub25lIiBzdHJva2UtbGluZWpvaW49InJvdW5kIiBzdHJva2UtbGluZWNhcD0icm91bmQiIHN0cm9rZS13aWR0aD0iMS41IiBzdHJva2U9IiMwQTQ2NkEiIHkyPSI2NS41MiIgeDI9IjQwLjg5IiB5MT0iNjUuNTIiIHgxPSIzMy40NiIvPjxsaW5lIGZpbGw9Im5vbmUiIHN0cm9rZS1saW5lam9pbj0icm91bmQiIHN0cm9rZS1saW5lY2FwPSJyb3VuZCIgc3Ryb2tlLXdpZHRoPSIxLjUiIHN0cm9rZT0iIzBBNDY2QSIgeTI9IjY5LjgxIiB4Mj0iMzEuMTEiIHkxPSI2OS44MSIgeDE9IjIzLjY3Ii8+PGxpbmUgZmlsbD0ibm9uZSIgc3Ryb2tlLWxpbmVqb2luPSJyb3VuZCIgc3Ryb2tlLWxpbmVjYXA9InJvdW5kIiBzdHJva2Utd2lkdGg9IjEuNSIgc3Ryb2tlPSIjMEE0NjZBIiB5Mj0iNjkuODEiIHgyPSI0MC44OSIgeTE9IjY5LjgxIiB4MT0iMzMuNDYiLz48L2c+PGNpcmNsZSBmaWxsPSJub25lIiBzdHJva2UtbWl0ZXJsaW1pdD0iMTAiIHN0cm9rZS13aWR0aD0iMS4zOSIgc3Ryb2tlPSIjRDQwMDAwIiByPSIyLjI0IiBjeT0iMzUuNCIgY3g9IjUwLjM0Ii8+PGNpcmNsZSBmaWxsPSJub25lIiBzdHJva2UtbWl0ZXJsaW1pdD0iMTAiIHN0cm9rZS13aWR0aD0iMS4zOSIgc3Ryb2tlPSIjRDQwMDAwIiByPSIyLjI0IiBjeT0iMzUuNCIgY3g9IjYwLjg1Ii8+PHJlY3QgZmlsbD0ibm9uZSIgc3Ryb2tlLWxpbmVqb2luPSJyb3VuZCIgc3Ryb2tlLWxpbmVjYXA9InJvdW5kIiBzdHJva2Utd2lkdGg9IjEuNSIgc3Ryb2tlPSIjMEE0NjZBIiBoZWlnaHQ9IjEzLjQ4IiB3aWR0aD0iNTEuNDYiIHk9IjExLjk3IiB4PSIxOC41MyIvPjxjaXJjbGUgZmlsbD0ibm9uZSIgc3Ryb2tlLW1pdGVybGltaXQ9IjEwIiBzdHJva2Utd2lkdGg9IjEuMzkiIHN0cm9rZT0iI0Q0MDAwMCIgcj0iMi4yNCIgY3k9IjUxLjI3IiBjeD0iNTAuMzQiLz48Y2lyY2xlIGZpbGw9Im5vbmUiIHN0cm9rZS1taXRlcmxpbWl0PSIxMCIgc3Ryb2tlLXdpZHRoPSIxLjM5IiBzdHJva2U9IiNENDAwMDAiIHI9IjIuMjQiIGN5PSI1MS4yNyIgY3g9IjYwLjg1Ii8+PGNpcmNsZSBmaWxsPSJub25lIiBzdHJva2UtbWl0ZXJsaW1pdD0iMTAiIHN0cm9rZS13aWR0aD0iMS4zOSIgc3Ryb2tlPSIjRDQwMDAwIiByPSIyLjI0IiBjeT0iNjcuNjMiIGN4PSI1MC4zNCIvPjx0ZXh0IHRyYW5zZm9ybT0idHJhbnNsYXRlKDIyLjczIDIyLjkyKSIgZm9udC1zaXplPSIxMiIgZm9udC13ZWlnaHQ9IjUwMCIgZm9udC1mYW1pbHk9IkdvdGhhbVByby1NZWRpdW0sR290aGFtIFBybyIgZmlsbD0iI0Q0MDAwMCI+PHRzcGFuIHk9IjAiIHg9IjAiPlBSPC90c3Bhbj48dHNwYW4geT0iMCIgeD0iMTYuNjkiIGxldHRlci1zcGFjaW5nPSItMC4wNWVtIj5PPC90c3Bhbj48dHNwYW4geT0iMCIgeD0iMjYuMjkiIGxldHRlci1zcGFjaW5nPSItMC4wM2VtIj5YPC90c3Bhbj48dHNwYW4geT0iMCIgeD0iMzQuNzIiPlk8L3RzcGFuPjwvdGV4dD48L3N2Zz4=" vertex="1" parent="1">
          <mxGeometry x="416" y="-141" width="88" height="88" as="geometry" />
        </mxCell>
        <mxCell id="xc72Eefd26BbPK5W_Sga-23" value="" style="shape=flexArrow;endArrow=classic;html=1;rounded=0;fontSize=12;startSize=8;endSize=8;curved=1;" edge="1" parent="1">
          <mxGeometry width="50" height="50" relative="1" as="geometry">
            <mxPoint x="-94" y="109" as="sourcePoint" />
            <mxPoint x="-92" y="-194" as="targetPoint" />
          </mxGeometry>
        </mxCell>
        <mxCell id="xc72Eefd26BbPK5W_Sga-24" value="" style="shape=flexArrow;endArrow=classic;html=1;rounded=0;fontSize=12;startSize=8;endSize=8;curved=1;" edge="1" parent="1">
          <mxGeometry width="50" height="50" relative="1" as="geometry">
            <mxPoint x="535" y="-162" as="sourcePoint" />
            <mxPoint x="538" y="118" as="targetPoint" />
          </mxGeometry>
        </mxCell>
        <mxCell id="xc72Eefd26BbPK5W_Sga-26" value="Calculated item &quot;trust&quot;&lt;br&gt;asks if any data available&lt;br&gt;in last 3m" style="text;html=1;align=center;verticalAlign=middle;whiteSpace=wrap;rounded=0;fontSize=16;" vertex="1" parent="1">
          <mxGeometry x="17" y="-151" width="213" height="55" as="geometry" />
        </mxCell>
        <mxCell id="xc72Eefd26BbPK5W_Sga-29" style="edgeStyle=none;curved=1;rounded=0;orthogonalLoop=1;jettySize=auto;html=1;exitX=0.25;exitY=0;exitDx=0;exitDy=0;fontSize=12;startSize=8;endSize=8;" edge="1" parent="1" source="xc72Eefd26BbPK5W_Sga-27" target="xc72Eefd26BbPK5W_Sga-26">
          <mxGeometry relative="1" as="geometry" />
        </mxCell>
        <mxCell id="xc72Eefd26BbPK5W_Sga-27" value="it checks if the proxy has checked in" style="text;html=1;align=center;verticalAlign=middle;whiteSpace=wrap;rounded=0;fontSize=16;" vertex="1" parent="1">
          <mxGeometry x="37" y="-74" width="162" height="30" as="geometry" />
        </mxCell>
      </root>
    </mxGraphModel>
  </diagram>
</mxfile>
